# File created by Blade
# Date/Time:  Mon Nov 18 18:33:23 2013
# Frame Rate: 100.000 fps
#------------------------------------------------------
:FULLY-SPECIFIED
:DEGREES
235
root 52.905207 -4.025348 52.192639 -3.995472 0.443710 -125.994951
Spine 13.224278 -0.559127 -0.565149
Spine1 3.550808 1.594799 -1.414917
Spine2 0.830217 -1.135715 -1.406914
NeckDummy -0.000638 -0.157953 -0.022761 -1.376039 1.161714 -0.427519
Neck 14.857800 0.293283 27.564051
Head -0.305865 0.358164 0.190318 -34.203155 -4.163285 -0.662092
LeftShoulderDummy -0.059738 -0.148003 0.031520 -1.353935 1.039769 -0.212318
LeftShoulder 7.327750 -3.507555 14.376021
LeftArm 21.800555 50.762043 30.303451
LeftForeArm 90.114730
LeftForeArmRoll -36.877976
LeftHand -9.516183 5.570471 -4.723595
LeftHandThumb1 17.163937 13.041051
LeftHandIndex1 14.287345 43.728473
LeftHandPinky1 13.778841 48.267110
RightShoulderDummy -0.034943 -0.136274 0.054408 -1.396935 -1.159595 0.426431
RightShoulder 5.621129 4.794975 17.375105
RightArm -39.626969 70.184485 -2.527458
RightForeArm 112.840543
RightForeArmRoll 3.641583
RightHand -17.837488 -16.100452 11.446972
RightHandThumb1 -0.656257 13.781606
RightHandIndex1 13.942602 61.261268
RightHandPinky1 19.002762 69.360485
LeftUpLeg 3.648968 21.750439 -35.672364
LeftLeg 61.832890
LeftFoot 0.655077 -1.047902 -0.957168 -12.023824 10.881681 -15.454290
LeftToeBase -1.350778
RightUpLeg 10.334609 12.540032 -26.429388
RightLeg 68.147276
RightFoot -0.539797 0.454081 0.263123 -0.476190 7.179477 -34.696766
RightToeBase -1.045662
236
root 52.908773 -4.045242 52.190371 -3.984608 0.413698 -125.964829
Spine 13.200310 -0.547672 -0.581447
Spine1 3.558647 1.593516 -1.445025
Spine2 0.851844 -1.183494 -1.325560
NeckDummy -0.001006 -0.158922 -0.023516 -1.361045 1.105938 -0.430522
Neck 14.823329 0.359228 27.573300
Head -0.307760 0.359547 0.189479 -34.202880 -4.156737 -0.689968
LeftShoulderDummy -0.060374 -0.149096 0.031267 -1.339109 0.983904 -0.215105
LeftShoulder 7.298693 -3.430415 14.337523
LeftArm 21.881506 50.822074 30.372414
LeftForeArm 90.088027
LeftForeArmRoll -36.837958
LeftHand -9.556564 5.659990 -4.717558
LeftHandThumb1 17.124347 12.919714
LeftHandIndex1 14.271352 43.629134
LeftHandPinky1 13.731634 48.187565
RightShoulderDummy -0.035932 -0.137166 0.051958 -1.382007 -1.103362 0.427818
RightShoulder 5.606556 4.756231 17.366173
RightArm -39.623688 70.213724 -2.507378
RightForeArm 112.813108
RightForeArmRoll 3.538072
RightHand -17.794728 -16.242830 11.591840
RightHandThumb1 -0.635716 13.642440
RightHandIndex1 13.818672 61.185451
RightHandPinky1 18.947850 69.616963
LeftUpLeg 3.588223 21.793355 -35.776373
LeftLeg 61.929134
LeftFoot 0.647770 -1.044536 -0.961637 -12.162296 10.816165 -15.516397
LeftToeBase -1.215400
RightUpLeg 10.349997 12.512355 -26.466238
RightLeg 68.223273
RightFoot -0.540779 0.452672 0.265533 -0.460553 7.223855 -34.775586
RightToeBase -1.030552
237
root 52.909046 -4.062257 52.188122 -3.964514 0.392927 -125.905989
Spine 13.132923 -0.515433 -0.633149
Spine1 3.552588 1.616217 -1.560088
Spine2 0.943337 -1.309190 -1.198857
NeckDummy -0.001548 -0.159586 -0.026249 -1.364729 1.021222 -0.441857
Neck 14.801883 0.446456 27.621984
Head -0.306868 0.359233 0.191829 -34.218296 -4.199358 -0.686699
LeftShoulderDummy -0.061098 -0.149823 0.030205 -1.343373 0.899642 -0.228068
LeftShoulder 7.265403 -3.378496 14.347433
LeftArm 21.904327 50.817139 30.374651
LeftForeArm 90.051973
LeftForeArmRoll -36.830069
LeftHand -9.561936 5.629373 -4.723699
LeftHandThumb1 17.081066 12.930793
LeftHandIndex1 14.301780 43.563585
LeftHandPinky1 13.727412 48.229645
RightShoulderDummy -0.036842 -0.137540 0.047837 -1.385488 -1.019455 0.440092
RightShoulder 5.612325 4.705378 17.274410
RightArm -39.545615 70.308191 -2.429567
RightForeArm 112.759854
RightForeArmRoll 3.363241
RightHand -17.745689 -16.408967 11.466590
RightHandThumb1 -0.831388 13.903619
RightHandIndex1 14.070612 61.600396
RightHandPinky1 19.187892 69.848304
LeftUpLeg 3.521757 21.794321 -35.881325
LeftLeg 62.025579
LeftFoot 0.658593 -1.047848 -0.962764 -12.106918 10.826382 -15.539803
LeftToeBase -1.287326
RightUpLeg 10.446524 12.529100 -26.490016
RightLeg 68.283416
RightFoot -0.549711 0.448706 0.266586 -0.438622 7.183071 -34.845491
RightToeBase -1.016654
238
root 52.917769 -4.078150 52.180255 -3.978695 0.330403 -125.897034
Spine 13.175109 -0.530979 -0.601750
Spine1 3.553688 1.628472 -1.503869
Spine2 0.916737 -1.246411 -1.267453
NeckDummy -0.001544 -0.159065 -0.025415 -1.362518 1.065907 -0.427400
Neck 14.814395 0.452186 27.586015
Head -0.309512 0.357414 0.191089 -34.202504 -4.214412 -0.700112
LeftShoulderDummy -0.060430 -0.148909 0.030144 -1.340915 0.944012 -0.213517
LeftShoulder 7.356363 -3.438869 14.325137
LeftArm 22.021927 50.761965 30.523825
LeftForeArm 90.020980
LeftForeArmRoll -36.804810
LeftHand -9.559617 5.662575 -4.721290
LeftHandThumb1 17.038951 12.880240
LeftHandIndex1 14.250569 43.667158
LeftHandPinky1 13.695066 48.215276
RightShoulderDummy -0.036206 -0.137236 0.049329 -1.383679 -1.063705 0.425715
RightShoulder 5.616110 4.720307 17.309556
RightArm -39.508881 70.283840 -2.391477
RightForeArm 112.739059
RightForeArmRoll 3.509517
RightHand -17.794330 -16.129895 11.556526
RightHandThumb1 -0.722309 13.739457
RightHandIndex1 13.897357 61.042349
RightHandPinky1 18.867670 69.324930
LeftUpLeg 3.492909 21.897272 -35.944892
LeftLeg 62.113296
LeftFoot 0.657156 -1.045367 -0.958895 -12.274884 10.734647 -15.616331
LeftToeBase -1.187928
RightUpLeg 10.453484 12.443008 -26.509915
RightLeg 68.365998
RightFoot -0.551290 0.446173 0.265957 -0.484278 7.249537 -34.910726
RightToeBase -0.976631
239
root 52.920648 -4.093692 52.177097 -3.955102 0.310102 -125.859667
Spine 13.150498 -0.552700 -0.585490
Spine1 3.569351 1.614646 -1.473113
Spine2 0.886575 -1.179694 -1.333254
NeckDummy -0.001173 -0.161189 -0.024344 -1.321893 1.109690 -0.420818
Neck 14.827874 0.441289 27.539392
Head -0.310768 0.357490 0.189805 -34.215386 -4.211503 -0.734992
LeftShoulderDummy -0.060407 -0.151109 0.028963 -1.299818 0.986626 -0.204473
LeftShoulder 7.263141 -3.414876 14.211017
LeftArm 21.983548 50.915617 30.450450
LeftForeArm 89.995708
LeftForeArmRoll -36.806748
LeftHand -9.575960 5.677166 -4.724355
LeftHandThumb1 17.027887 12.882651
LeftHandIndex1 14.266132 43.475869
LeftHandPinky1 13.714158 48.142789
RightShoulderDummy -0.035925 -0.139569 0.049872 -1.342564 -1.107843 0.417851
RightShoulder 5.630224 4.757573 17.333681
RightArm -39.449259 70.296781 -2.331082
RightForeArm 112.725953
RightForeArmRoll 3.397598
RightHand -17.769648 -16.000669 11.503807
RightHandThumb1 -0.866492 13.543491
RightHandIndex1 13.921880 60.139764
RightHandPinky1 19.034743 69.671044
LeftUpLeg 3.448405 21.929091 -36.030893
LeftLeg 62.177319
LeftFoot 0.659039 -1.046418 -0.962683 -12.179191 10.725964 -15.624947
LeftToeBase -1.274838
RightUpLeg 10.465735 12.431764 -26.569165
RightLeg 68.468052
RightFoot -0.550484 0.447048 0.261783 -0.482910 7.265990 -34.974606
RightToeBase -0.988258
